HIERARCHY
ROOT SpineBase
{
  OFFSET 0.000000 0.000000 0.000000
  CHANNELS 6 Xposition Yposition Zposition Zrotation Xrotation Yrotation
  JOINT SpineMid
  {
    OFFSET 0.000000 29.353632 0.000000
    CHANNELS 3 Zrotation Xrotation Yrotation
    JOINT SpineShoulder
    {
      OFFSET -0.069809 21.820850 -0.769929
      CHANNELS 3 Zrotation Xrotation Yrotation
      JOINT Neck
      {
        OFFSET -0.045828 7.219761 -0.588252
        CHANNELS 3 Zrotation Xrotation Yrotation
        JOINT Head
        {
          OFFSET -2.086719 13.079188 -0.045909
          CHANNELS 3 Zrotation Xrotation Yrotation
          End Site
          {
            OFFSET 0 0 0
          }
        }
      }
      JOINT ShoulderLeft
      {
        OFFSET -14.552625 -3.584614 6.036659
        CHANNELS 3 Zrotation Xrotation Yrotation
        JOINT ElbowLeft
        {
          OFFSET -2.429082 -29.783415 6.359049
          CHANNELS 3 Zrotation Xrotation Yrotation
          JOINT WristLeft
          {
            OFFSET 0.541068 -22.634873 -5.943289
            CHANNELS 3 Zrotation Xrotation Yrotation
            JOINT HandLeft
            {
              OFFSET 0.790879 -2.303066 -0.364946
              CHANNELS 3 Zrotation Xrotation Yrotation
              JOINT HandTipLeft
              {
                OFFSET 1.190082 -7.196066 -4.371021
                CHANNELS 3 Zrotation Xrotation Yrotation
                End Site
                {
                  OFFSET 0 0 0
                }
              }
              JOINT ThumbLeft
              {
                OFFSET 2.036837 0.013887 -5.308857
                CHANNELS 3 Zrotation Xrotation Yrotation
                End Site
                {
                  OFFSET 0 0 0
                }
              }
            }
          }
        }
      }
      JOINT ShoulderRight
      {
        OFFSET 11.043771 -3.674106 -10.930131
        CHANNELS 3 Zrotation Xrotation Yrotation
        JOINT ElbowRight
        {
          OFFSET 5.980127 -23.879757 -1.632609
          CHANNELS 3 Zrotation Xrotation Yrotation
          JOINT WristRight
          {
            OFFSET -0.089864 -22.579939 -6.560340
            CHANNELS 3 Zrotation Xrotation Yrotation
            JOINT HandRight
            {
              OFFSET -0.839978 -5.496385 -0.369938
              CHANNELS 3 Zrotation Xrotation Yrotation
              JOINT HandTipRight
              {
                OFFSET -0.089360 -4.323863 0.190884
                CHANNELS 3 Zrotation Xrotation Yrotation
                End Site
                {
                  OFFSET 0 0 0
                }
              }
              JOINT ThumbRight
              {
                OFFSET 2.568132 0.292979 -0.620867
                CHANNELS 3 Zrotation Xrotation Yrotation
                End Site
                {
                  OFFSET 0 0 0
                }
              }
            }
          }
        }
      }
    }
  }
  JOINT HipLeft
  {
    OFFSET -6.279288 0.327068 -0.470638
    CHANNELS 3 Zrotation Xrotation Yrotation
    JOINT KneeLeft
    {
      OFFSET 5.012619 -25.932817 5.804664
      CHANNELS 3 Zrotation Xrotation Yrotation
      JOINT AnkleLeft
      {
        OFFSET 3.069898 -30.152991 5.901304
        CHANNELS 3 Zrotation Xrotation Yrotation
        JOINT FootLeft
        {
          OFFSET -4.579173 -3.053576 -10.031928
          CHANNELS 3 Zrotation Xrotation Yrotation
          End Site
          {
            OFFSET 0 0 0
          }
        }
      }
    }
  }
  JOINT HipRight
  {
    OFFSET 5.548738 1.181257 -6.295526
    CHANNELS 3 Zrotation Xrotation Yrotation
    JOINT KneeRight
    {
      OFFSET 6.014101 -21.997321 1.403448
      CHANNELS 3 Zrotation Xrotation Yrotation
      JOINT AnkleRight
      {
        OFFSET 7.022450 -36.629674 11.199125
        CHANNELS 3 Zrotation Xrotation Yrotation
        JOINT FootRight
        {
          OFFSET -3.126971 -6.145962 -2.983765
          CHANNELS 3 Zrotation Xrotation Yrotation
          End Site
          {
            OFFSET 0 0 0
          }
        }
      }
    }
  }
}
MOTION
Frames: 9
Frame Time: 0.033333
37.264507 63.152617 348.394786 -0.867865 -1.569223 47.470716 -0.655358 0.189194 -47.533531 0.224203 0.361391 -0.052282 -11.500959 6.671683 1.815974 0.000000 0.000000 0.000000 -10.966006 -19.460130 -2.610376 -116.798773 -14.759004 76.506448 36.712965 -11.965294 26.015118 86.391218 -7.872455 26.178114 0.000000 0.000000 0.000000 0.000000 0.000000 0.000000 -0.272364 4.442169 0.995678 -7.117670 -13.621727 0.486588 32.468207 -3.448510 -4.614458 -26.053893 9.912047 2.605554 0.000000 0.000000 0.000000 0.000000 0.000000 0.000000 0.198071 0.978263 -47.943563 2.659754 2.340676 0.829269 -3.801593 -7.177639 18.435600 0.000000 0.000000 0.000000 -1.541545 -8.619995 -49.741567 -4.198202 10.974871 2.982702 -16.999062 16.901636 -0.482362 0.000000 0.000000 0.000000
37.439405 63.136890 348.323742 -0.664382 -1.511437 48.438036 -0.536168 0.239685 -48.487933 0.236761 0.358010 -0.039902 -12.113298 6.397132 1.754512 0.000000 0.000000 0.000000 -11.655661 -20.532856 -2.835176 -117.560932 -12.669854 82.127030 31.719759 -18.134673 17.809570 96.551446 -6.999471 25.977995 0.000000 0.000000 0.000000 0.000000 0.000000 0.000000 0.022625 4.267452 0.905111 -6.329411 -12.908587 0.361063 34.847088 -4.491271 -4.089641 -29.400342 8.234219 3.221913 0.000000 0.000000 0.000000 0.000000 0.000000 0.000000 -0.181399 1.435194 -48.975383 2.916706 2.192177 0.874051 -3.626522 -7.074054 18.355406 0.000000 0.000000 0.000000 -2.865888 -8.207755 -50.981093 -2.932711 11.713474 3.233276 -13.273575 13.338561 -1.756100 0.000000 0.000000 0.000000
37.590510 63.206687 348.237269 -0.490147 -1.423522 49.690496 -0.470080 0.261560 -49.730270 0.252700 0.352903 -0.029370 -12.559350 5.960199 1.637121 0.000000 0.000000 0.000000 -12.334817 -21.700670 -3.074706 -118.237158 -11.168405 87.000195 25.873192 -23.814079 7.246801 100.299761 -1.525946 23.310285 0.000000 0.000000 0.000000 0.000000 0.000000 0.000000 0.431675 4.430656 0.889262 -5.787372 -12.954972 0.110353 37.415862 1.324722 -6.674187 -32.899061 1.026629 2.827655 0.000000 0.000000 0.000000 0.000000 0.000000 0.000000 -0.471396 1.867373 -50.273177 3.145375 2.095348 0.913461 -3.475578 -7.069851 18.266290 0.000000 0.000000 0.000000 -3.385300 -7.328857 -52.166153 -1.657179 10.613669 3.043239 -3.675321 8.056264 -4.654276 0.000000 0.000000 0.000000
37.702490 63.339222 348.172343 -0.360490 -1.353701 51.030251 -0.426235 0.256157 -51.062640 0.256967 0.358566 -0.021410 -12.944287 5.813269 1.600627 0.000000 0.000000 0.000000 -12.688402 -22.177900 -3.186374 -118.961084 -10.192699 89.884042 14.245659 -24.324811 -5.161473 102.710273 7.915536 23.893957 0.000000 0.000000 0.000000 0.000000 0.000000 0.000000 0.948447 4.617165 0.864878 -5.569003 -12.623144 -0.070744 38.053457 5.439928 -8.367615 -35.222110 -3.729976 2.061292 0.000000 0.000000 0.000000 0.000000 0.000000 0.000000 -0.409231 2.337092 -51.584154 3.200064 1.621134 0.863641 -3.289133 -6.965364 18.254530 0.000000 0.000000 0.000000 -4.893772 -7.235735 -53.888670 -0.890080 11.990838 3.392878 0.180868 5.349116 -5.839105 0.000000 0.000000 0.000000
37.852440 63.431268 348.075570 -0.207698 -1.238214 51.716328 -0.411980 0.268475 -51.741080 0.174521 0.318413 -0.019977 -12.944392 5.673250 1.554947 0.000000 0.000000 0.000000 -12.739674 -22.242207 -3.201575 -118.650925 -10.979997 88.570603 27.828640 -28.095230 3.597409 87.944008 6.682128 20.218646 0.000000 0.000000 0.000000 0.000000 0.000000 0.000000 1.510274 4.846776 0.861566 -5.673638 -12.170746 -0.207227 35.978880 11.124454 -10.144406 -34.182438 -11.743991 0.647642 0.000000 0.000000 0.000000 0.000000 0.000000 0.000000 -0.835264 2.614089 -52.347226 3.320559 1.646629 0.906950 -3.054910 -6.914691 18.275082 0.000000 0.000000 0.000000 -5.821765 -6.901656 -54.735846 -0.016952 12.411434 3.520436 7.174984 0.386288 -7.173240 0.000000 0.000000 0.000000
37.988884 63.557636 347.991881 -0.104790 -1.147301 52.417511 -0.409003 0.287967 -52.437574 0.049351 0.242183 -0.024826 -12.549490 5.739717 1.555648 0.000000 0.000000 0.000000 -12.638357 -21.879696 -3.167599 -118.225164 -11.910039 86.288820 39.368018 -24.829342 17.251202 72.439093 0.629580 19.368270 0.000000 0.000000 0.000000 0.000000 0.000000 0.000000 2.111465 5.116604 0.864666 -6.071363 -11.747267 -0.288039 35.064386 15.008471 -11.416620 -32.433551 -16.158757 -0.021063 0.000000 0.000000 0.000000 0.000000 0.000000 0.000000 -1.172216 2.986042 -53.122186 3.707047 1.619447 0.989565 -3.033981 -6.922416 18.338135 0.000000 0.000000 0.000000 -7.034928 -6.412594 -55.673536 1.379870 13.258660 3.737173 4.489576 2.392755 -7.484412 0.000000 0.000000 0.000000
38.095341 63.685460 347.929093 -0.044614 -1.070774 52.993787 -0.354474 0.299641 -53.010381 0.002040 0.226970 -0.024071 -12.205759 5.527350 1.476453 0.000000 0.000000 0.000000 -11.976541 -21.398399 -2.911789 -121.654782 -10.793505 90.607484 41.354462 -20.197696 33.233283 55.698076 -16.125633 17.621716 0.000000 0.000000 0.000000 0.000000 0.000000 0.000000 2.484347 5.335700 0.890246 -6.418071 -11.339209 -0.372215 32.586720 19.814281 -12.496903 -28.709337 -20.742654 -0.414955 0.000000 0.000000 0.000000 0.000000 0.000000 0.000000 -1.433340 3.334157 -53.762850 4.238300 1.590400 1.095247 -3.184553 -6.912992 18.269765 0.000000 0.000000 0.000000 -7.248547 -6.203006 -56.239634 1.518273 13.041931 3.689217 -2.794433 8.886040 -6.636776 0.000000 0.000000 0.000000
38.144665 63.810521 347.879532 -0.056638 -0.998762 53.752859 -0.276840 0.291205 -53.768615 -0.006228 0.243048 -0.022238 -11.763136 5.197791 1.364533 0.000000 0.000000 0.000000 -12.309586 -21.945036 -3.066276 -120.432910 -11.541910 89.054439 39.587407 -10.575617 45.346539 39.752451 -27.357341 10.417165 0.000000 0.000000 0.000000 0.000000 0.000000 0.000000 2.666651 5.555961 0.948502 -6.924741 -11.038157 -0.425126 31.855490 24.488970 -14.024324 -24.453462 -24.542242 0.170365 0.000000 0.000000 0.000000 0.000000 0.000000 0.000000 -1.546088 3.607898 -54.566307 4.813350 1.548337 1.202367 -3.458149 -6.914417 18.130813 0.000000 0.000000 0.000000 -6.970358 -6.663654 -56.962833 0.164227 12.801294 3.602180 -16.862461 19.666328 -2.220583 0.000000 0.000000 0.000000
38.207337 63.866184 347.840618 -0.067094 -0.937801 53.778339 -0.228996 0.292849 -53.793780 -0.015187 0.248847 -0.021780 -11.163905 4.999387 1.285503 0.000000 0.000000 0.000000 -13.425565 -23.286042 -3.557517 -115.355191 -13.424782 83.227942 30.680778 -2.492518 47.256757 36.440358 -30.388494 9.968562 0.000000 0.000000 0.000000 0.000000 0.000000 0.000000 2.731851 5.704144 1.000914 -7.496925 -10.580339 -0.409167 29.501668 22.891185 -12.466322 -21.422994 -21.070598 0.764068 0.000000 0.000000 0.000000 0.000000 0.000000 0.000000 -1.673167 3.718384 -54.622279 5.214233 1.574198 1.283096 -3.686966 -6.880919 17.910489 0.000000 0.000000 0.000000 -6.792088 -6.849826 -56.947743 -0.413712 12.505667 3.515441 -22.946364 22.928758 0.710890 0.000000 0.000000 0.000000
